<svg id="Layer_1" data-name="Layer 1" xmlns="http://www.w3.org/2000/svg" viewBox="0 0 600 154"><defs><style>.cls-1{fill:#2e5972}.cls-2{fill:#f78f48}</style></defs><title>Artboard 1</title><path class="cls-1" d="M289.88 1.91a1.41 1.41 0 0 0-2.52 0c-15.49 30.73-37.12 50.41-37.12 73.16 0 23.38 17.18 38.38 38.38 38.38S327 98.45 327 75.07c0-22.75-21.63-42.43-37.12-73.16z"/><path class="cls-2" d="M58.7 35.19l-5.32 6.49a1.41 1.41 0 0 1-1.65.41A33.86 33.86 0 0 0 38 39.69c-21.43 0-37 15-37 35.77C1 97.36 15.17 111 38 111c5.24 0 14.1 2.12 14.1 10.08 0 8.12-7.6 11-14.1 11-7.1 0-14.64-3.85-14.64-11v-1.52a1.41 1.41 0 0 0-1.41-1.41H2.41A1.41 1.41 0 0 0 1 119.52V121c0 18.74 15.21 31.83 37 31.83S74.56 140.08 74.56 121c0-8.84-3-15.44-9.42-20.34a1.4 1.4 0 0 1-.05-2.2c8.94-7.5 9.75-19.15 9.75-23a30.31 30.31 0 0 0-5.55-18.33 1.42 1.42 0 0 1 0-1.73l6.28-7.71a1.41 1.41 0 0 0-.26-2l-14.7-10.75a1.41 1.41 0 0 0-1.91.25zM38 60.13c8.54 0 14.51 6.3 14.51 15.33 0 8.87-6 15.07-14.51 15.07-7.29 0-14.64-4.66-14.64-15.07-.02-9.03 6-15.33 14.64-15.33zm103.08-16.21a1.4 1.4 0 0 1-2.15 1.08A31.1 31.1 0 0 0 122 40.22c-11.24-.07-21.16 3.58-27.93 10.3-6.56 6.52-10 15.69-10 26.51 0 11.28 3.5 20.71 10.12 27.29s16 10.05 27.1 10.05h.36a33.31 33.31 0 0 0 17.49-5.5 1.4 1.4 0 0 1 2.17 1.05l.1 1.19a1.41 1.41 0 0 0 1.4 1.29h18.58a1.41 1.41 0 0 0 1.41-1.41V43.2a1.41 1.41 0 0 0-1.41-1.41h-18.86a1.41 1.41 0 0 0-1.4 1.32zm-.86 33.18c0 8-5.22 16.71-16.69 16.71-8.44 0-17-5.19-17-16.78s8.52-16.64 17-16.64c11.47 0 16.69 8.66 16.69 16.71zm69.58-10.34c-6.49-.4-9.78-1.8-9.78-4.17 0-2.59 4.82-3.51 9.33-3.51 6.31 0 10.83 1.55 14.65 5l1.14 1a1.41 1.41 0 0 0 2-.11l11.31-12.83a1.41 1.41 0 0 0-.15-2l-1.18-1c-7.75-6.56-15.88-9.23-28-9.23-7.44 0-14.81 1.78-20.22 4.89-7.22 4.15-11 10.46-11 18.27 0 13.42 10.83 21.59 30.56 23 10.58.58 10.58 2.75 10.58 3.91a3.13 3.13 0 0 1-1.09 2.27c-1.65 1.62-4.8 2.64-8.06 2.56-7.31-.13-17.15-3.93-21.07-8.13l-1.27-1.36a1.41 1.41 0 0 0-2.17.14l-10 14a1.41 1.41 0 0 0 .15 1.81l.91.91c10.9 10.95 22.86 12.42 33.13 12.42 22 0 31.81-12.16 31.81-24.21-.09-21.67-22.97-23.1-31.58-23.63z"/><rect class="cls-1" x="340.59" y="41.53" width="22.48" height="70.88" rx="1.41" ry="1.41"/><path class="cls-1" d="M420.89 40.74A31.26 31.26 0 0 0 403 46.31a1.4 1.4 0 0 1-2.18-1l-.3-2.42a1.41 1.41 0 0 0-1.4-1.23h-17.75a1.41 1.41 0 0 0-1.37 1.41V111a1.41 1.41 0 0 0 1.41 1.41h19.52a1.41 1.41 0 0 0 1.37-1.41V76.38c0-8.67 6.12-15.2 14.24-15.2 8.32 0 13.28 5.39 13.28 14.41V111a1.41 1.41 0 0 0 1.41 1.41h19.66a1.41 1.41 0 0 0 1.41-1.41V75.46c-.01-20.77-12.63-34.72-31.41-34.72zm75.94.57c0-3.94 1.24-8.63 7.15-8.63 2.7 0 5.45.94 8.65 3l1.41.89a1.41 1.41 0 0 0 2-.55l7.53-14.67a1.41 1.41 0 0 0-.5-1.83l-1.18-.74a36.38 36.38 0 0 0-19-5.7c-14.21 0-28.54 8.74-28.54 28.28a1.41 1.41 0 0 1-1.35 1.35h-9.72a1.41 1.41 0 0 0-1.41 1.41v17.1a1.41 1.41 0 0 0 1.41 1.41H473a1.41 1.41 0 0 1 1.36 1.37v47a1.41 1.41 0 0 0 1.41 1.41h19.66a1.41 1.41 0 0 0 1.41-1.41V64a1.41 1.41 0 0 1 1.41-1.41h16.94a1.41 1.41 0 0 0 1.41-1.41V44.12a1.41 1.41 0 0 0-1.41-1.41h-16.95a1.41 1.41 0 0 1-1.41-1.41zm64.1-.83c-21.82 0-37.66 15.43-37.66 36.69 0 21.6 15.54 36.69 37.8 36.69S599 98.77 599 77.17c0-21.26-16-36.69-38.07-36.69zm.14 52.81c-10.59 0-15.33-8.1-15.33-16.12 0-7.83 4.8-16.25 15.33-16.25 9.59 0 15.33 8.26 15.33 16.25s-4.75 16.12-15.34 16.12z"/></svg>