<svg id="Layer_1" data-name="Layer 1" xmlns="http://www.w3.org/2000/svg" viewBox="0 0 689.46 160"><defs><style>.cls-1{fill:#319fca}.cls-2{fill:#a7a9ac}</style></defs><title>Artboard 1</title><path id="_Compound_Path_" data-name="&lt;Compound Path&gt;" class="cls-1" d="M61.71 141.71A61.71 61.71 0 1 0 0 80a61.71 61.71 0 0 0 61.71 61.71zM13.14 85.93c17.59-5.08 22.27-9.72 23.08-12.73S35.24 63.63 22 50a.92.92 0 0 1-.26-.73c-.17-1 .16-2.85 3.26-5.95s5.2-3.46 6.08-3.24a3.79 3.79 0 0 1 1.17.84c13.2 12.7 19.56 14.44 22.58 13.63s7.8-5.63 13-23.9c.07-.25.59-.67.66-.72.83-.58 2.66-1.1 6.63 0 4.66 1.25 5.88 3 5.88 3.78a5.44 5.44 0 0 1-.24 1.53c-4.34 17.62-2.66 24-.46 26.16s8.77 3.94 27.15-.71a.92.92 0 0 1 .53 0c.87.18 2.54 1.17 3.81 5.88 1.5 5.61-.1 7-.68 7.24-.24.09-.88.22-1.24.33-17.33 5-22 9.64-22.76 12.64s1 9.56 14.18 23.15a.92.92 0 0 1 .19.29c.33.7.66 2.68-3.11 6.46-4 4-6 3.39-6.55 3a.92.92 0 0 1-.19-.14c-13.59-13.2-20.09-15-23.15-14.18s-7.62 5.45-12.67 22.85a12.14 12.14 0 0 1-.42 1.25c-.2.47-1.51 2.08-7.12.58-3.63-1-5-2.2-5.59-3.09a2 2 0 0 1-.26-1.64l.13-.51c4.37-17.7 2.69-24.05.49-26.26S34.52 94.73 17 99a4.93 4.93 0 0 1-1.72.24c-.9-.29-2.46-1.41-3.65-5.85-1-3.6-.58-5.41-.13-6.36.29-.64 1.5-1.03 1.64-1.1z"/><circle id="_Path_" data-name="&lt;Path&gt;" class="cls-1" cx="61.64" cy="79.98" r="13.72"/><path d="M552.7 94.07c0-8.28-3.91-21.22-18.61-21.22C521 72.86 513 83.56 513 97.14s8.28 22.71 22.15 22.71a36.48 36.48 0 0 0 15-2.79l-1.51-6.35a29.62 29.62 0 0 1-12.52 2.29c-8.19 0-14.65-4.07-14.83-15.15h31.14a30.94 30.94 0 0 0 .27-3.78zm-19.26-14.85c8.93 0 11.29 7.12 11.35 12.31h-23.34c.77-5.59 3.95-12.31 11.99-12.31z"/><path id="_Compound_Path_2" data-name="&lt;Compound Path&gt;" d="M237.61 73.39h8.54v6.3c2.52-4.76 7.42-7.42 13.72-7.42s11.06 2.8 13.86 8.54c3.64-5.74 8.82-8.54 16.24-8.54 9.66 0 16.66 6.58 16.66 17.78v29.4h-8.54V91c0-7.28-3.36-11.06-9.8-11.06-7.7 0-11.9 4.62-11.9 12.74v26.74h-8.54V91.17c0-7.28-3.22-11.2-9.8-11.2-7.56 0-11.9 4.62-11.9 13v26.46h-8.54z"/><path id="_Compound_Path_3" data-name="&lt;Compound Path&gt;" d="M318.54 59.71a5.88 5.88 0 1 1 5.88 5.88 5.91 5.91 0 0 1-5.88-5.88zm1.54 13.68h8.68v46.06h-8.68z"/><path id="_Compound_Path_4" data-name="&lt;Compound Path&gt;" d="M343.46 73.39H352v7.7c2.94-6 8.12-8.82 13.44-8.82a12.76 12.76 0 0 1 7.28 1.82l-2.94 7.28a11.26 11.26 0 0 0-5.78-1.26c-6.86 0-12 5.6-12 15v24.36h-8.54z"/><path id="_Compound_Path_5" data-name="&lt;Compound Path&gt;" d="M407.32 91.17c0-8.54-4.2-11.62-10.78-11.62a14.93 14.93 0 0 0-13 6.58l-5.46-4.76c4.62-6.16 10.78-9.1 18.76-9.1 11.76 0 19 6.16 19 18.9v28.28h-8.54v-5.18c-3.08 3.92-8.12 6.3-14.42 6.3-9.66 0-17.5-4.76-17.5-14.84 0-9.38 8.26-14.14 18.06-14.14h13.86zM394 98.45c-5.6 0-10.08 2.1-10.08 7.28s3.92 7.84 10.36 7.84c6.86 0 13-3.64 13-10.08v-5z"/><path id="_Compound_Path_6" data-name="&lt;Compound Path&gt;" d="M428.31 73.39h8.54v7.42c2.94-5.6 8.82-8.54 15.82-8.54 10.08 0 17.64 6.44 17.64 18.9v28.28h-8.54V92c0-8.12-3.92-12-11.2-12-8.26 0-13.72 5.18-13.72 14v25.48h-8.54z"/><path id="_Compound_Path_7" data-name="&lt;Compound Path&gt;" d="M479.69 80.67v-7.28h6v-10.7l8.54-2.31v13h11.48v7.28h-11.46V107c0 4.2 1.54 6.16 4.9 6.16a8.21 8.21 0 0 0 5-2l3.64 6a14.08 14.08 0 0 1-9.66 3.36c-7.56 0-12.46-4.06-12.46-13.16V80.67z"/><path id="_Compound_Path_8" data-name="&lt;Compound Path&gt;" class="cls-2" d="M561 113.71a6.57 6.57 0 0 1 6.58-6.58 6.58 6.58 0 0 1 0 13.16 6.57 6.57 0 0 1-6.58-6.58z"/><path id="_Compound_Path_9" data-name="&lt;Compound Path&gt;" class="cls-2" d="M584.48 59.71a5.88 5.88 0 1 1 5.88 5.88 5.91 5.91 0 0 1-5.88-5.88zM586 73.39h8.68v46.06H586z"/><path id="_Compound_Path_10" data-name="&lt;Compound Path&gt;" class="cls-2" d="M604 96.49c0-13.86 10.78-24.22 24.5-24.22a23.91 23.91 0 0 1 24.36 24.22c0 13.72-10.78 24.08-24.36 24.08S604 110.21 604 96.49zm40 0c0-9.66-6.3-16.94-15.54-16.94S613 86.83 613 96.49s6.3 16.8 15.54 16.8 15.53-7.29 15.53-16.8z"/><path id="_Compound_Path_11" data-name="&lt;Compound Path&gt;" d="M159.58 95.09l-8 24.35h-9.69L167.51 42h12.06l25.77 77.42h-10L187 95.09zM185 87.28L177.39 65c-1.72-5.05-2.87-9.65-4-14.13h-.23c-1.15 4.6-2.41 9.3-3.91 14l-7.58 22.4z"/><path id="_Compound_Path_12" data-name="&lt;Compound Path&gt;" d="M215.64 39.43h8.68v80h-8.68z"/></svg>