<?xml version="1.0" standalone="no"?>
<!DOCTYPE svg PUBLIC "-//W3C//DTD SVG 20010904//EN"
 "http://www.w3.org/TR/2001/REC-SVG-20010904/DTD/svg10.dtd">
<svg version="1.0" xmlns="http://www.w3.org/2000/svg"
 width="400.000000pt" height="400.000000pt" viewBox="0 0 400.000000 400.000000"
 preserveAspectRatio="xMidYMid meet">

<g transform="translate(0.000000,400.000000) scale(0.100000,-0.100000)"
fill="#000000" stroke="none">
<path d="M0 2000 l0 -2000 2000 0 2000 0 0 2000 0 2000 -2000 0 -2000 0 0
-2000z m1973 1868 c18 -28 -2 -48 -90 -89 -49 -23 -97 -46 -108 -52 -100 -55
-268 -136 -274 -133 -4 3 -6 19 -3 36 5 34 60 95 124 137 71 47 212 100 281
105 16 1 31 6 34 11 7 11 25 4 36 -15z m675 -88 c52 -32 74 -76 68 -137 -2
-28 -12 -62 -21 -76 -31 -47 -141 -104 -182 -94 -21 5 -15 7 57 27 31 8 59 26
88 56 37 39 42 50 42 90 0 73 -37 123 -109 144 l-26 8 25 1 c14 1 40 -8 58
-19z m-533 -94 c40 -17 44 -36 15 -77 -21 -28 -35 -34 -180 -73 -322 -88 -391
-121 -516 -248 -50 -51 -99 -108 -108 -126 -21 -40 -42 -39 -72 5 -47 70 -39
139 27 220 19 22 45 55 57 72 13 17 49 43 80 58 32 15 59 30 62 33 23 25 242
97 385 126 132 26 204 29 250 10z m585 -237 c160 -16 221 -60 227 -166 5 -70
-8 -96 -65 -140 -74 -56 -198 -86 -537 -128 -250 -32 -551 -104 -661 -159 -27
-13 -61 -28 -76 -31 -16 -4 -28 -12 -28 -17 0 -6 7 -7 16 -4 8 3 13 2 10 -3
-13 -20 25 -17 129 9 140 36 307 68 610 119 301 51 345 60 345 72 0 5 -10 9
-22 9 -15 0 -19 3 -12 10 16 16 172 -4 226 -28 54 -24 84 -65 94 -129 17 -115
-96 -197 -327 -234 -107 -18 -107 -29 2 -29 51 0 110 -5 130 -10 132 -37 190
-180 112 -278 -16 -20 -65 -58 -109 -84 -168 -99 -190 -126 -201 -256 l-6 -68
57 -17 c68 -22 142 -76 139 -103 -1 -10 -4 -68 -8 -129 -12 -224 -27 -401 -37
-440 -17 -68 -94 -172 -184 -248 -79 -67 -84 -73 -90 -120 -6 -40 -10 -48 -25
-44 -15 4 -18 -4 -21 -55 -3 -53 0 -61 17 -68 11 -4 29 -17 40 -29 24 -27 13
-49 -33 -70 -47 -21 -44 -55 7 -81 48 -24 55 -34 47 -65 -4 -16 -18 -27 -48
-37 -40 -14 -42 -17 -53 -69 -13 -62 -31 -100 -74 -149 -23 -27 -30 -31 -31
-17 0 10 4 16 9 12 17 -10 70 167 63 211 -1 6 18 14 44 17 49 5 64 18 64 55 0
25 -38 46 -65 36 -13 -5 -14 0 -10 30 5 31 4 36 -14 36 -11 0 -23 5 -26 10 -4
6 8 10 28 10 34 0 58 18 70 51 7 20 -10 39 -34 39 -14 0 -18 14 -24 71 -6 64
-10 71 -34 81 -16 7 -124 12 -281 14 -140 1 -239 0 -220 -3 131 -16 231 -34
253 -44 23 -11 26 -18 29 -73 l3 -61 65 -5 c36 -3 58 -9 50 -12 -8 -4 -80 -20
-160 -37 -194 -39 -223 -53 -105 -48 89 4 89 4 35 -7 -58 -12 -51 -26 13 -26
47 0 76 -10 71 -25 -5 -13 62 -25 139 -25 23 0 36 -4 32 -10 -3 -5 -16 -10
-28 -10 -33 0 -214 -39 -282 -60 l-60 -20 110 5 c109 5 110 5 70 -11 -22 -9
-58 -20 -80 -26 -22 -5 -62 -17 -90 -26 -33 -11 -88 -16 -165 -17 -63 0 -122
-3 -130 -5 -10 -4 -16 3 -18 21 -2 19 6 34 32 57 20 17 36 40 36 50 0 10 5 23
12 30 18 18 1 27 -47 25 -72 -3 -70 40 4 91 22 16 43 37 46 47 4 10 25 30 48
45 23 14 33 23 22 20 -67 -17 -78 -19 -71 -8 4 7 33 19 64 28 78 23 93 34 90
64 -2 20 -9 26 -35 28 -29 3 -32 1 -30 -24 2 -24 -7 -32 -88 -76 -49 -27 -95
-46 -102 -44 -7 3 -13 16 -13 30 0 26 30 55 79 75 22 10 30 20 33 47 4 31 2
34 -23 34 -25 0 -28 4 -34 45 -7 40 -14 50 -76 101 -97 79 -153 144 -191 222
l-33 66 -3 267 -3 266 41 33 c23 18 78 46 123 61 47 17 81 34 79 41 -2 6 -21
42 -43 80 -29 49 -59 83 -112 125 -81 66 -95 79 -137 144 -64 98 -63 211 2
293 21 26 28 43 22 51 -5 7 -24 32 -42 55 -64 85 -77 193 -33 279 23 44 69
101 81 101 5 0 26 12 47 26 57 39 150 84 207 101 28 8 69 23 91 33 47 21 183
59 235 66 19 2 43 5 52 6 9 1 14 6 12 10 -3 4 7 8 23 9 l28 1 -25 8 c-24 8
-24 8 -2 9 21 1 33 21 11 21 -5 0 -7 5 -3 12 5 8 -2 9 -24 5 -84 -18 -96 -17
-42 3 91 35 278 70 405 77 66 3 129 9 140 14 21 8 106 4 265 -12z m-577 -2886
c-7 -2 -19 -2 -25 0 -7 3 -2 5 12 5 14 0 19 -2 13 -5z m55 -180 c-10 -2 -28
-2 -40 0 -13 2 -5 4 17 4 22 1 32 -1 23 -4z m-265 -187 c10 -25 -17 -61 -43
-58 -36 4 -70 30 -70 52 0 17 7 20 54 20 36 0 56 -4 59 -14z m-28 -156 c3 -6
15 -10 26 -10 10 0 19 -4 19 -10 0 -14 -43 -13 -75 2 -18 8 -22 14 -13 20 18
11 36 10 43 -2z"/>
<path d="M2744 2893 c-19 -56 -30 -70 -73 -90 -25 -12 -64 -24 -85 -28 -21 -3
-49 -13 -62 -21 -19 -13 -182 -46 -202 -42 -4 1 -18 -3 -32 -9 -68 -30 -130
-53 -140 -53 -6 0 -19 -7 -27 -16 -9 -8 -25 -13 -37 -11 -12 2 -32 1 -46 -3
-25 -8 -25 -8 -2 -9 13 -1 20 -5 17 -11 -3 -5 3 -10 14 -10 10 0 28 -3 38 -6
15 -5 15 -4 3 5 -11 8 1 11 50 11 36 0 99 7 140 16 41 8 89 18 105 20 17 3 37
8 45 11 8 4 37 8 65 10 27 2 54 8 59 13 6 6 25 10 43 10 20 0 41 8 53 20 11
11 25 20 31 20 23 0 79 53 79 76 0 12 5 26 10 29 16 10 11 57 -7 71 -24 18
-33 17 -39 -3z"/>
<path d="M1420 2715 c-7 -9 -8 -15 -2 -15 5 0 12 7 16 15 3 8 4 15 2 15 -2 0
-9 -7 -16 -15z"/>
<path d="M1978 2603 c7 -3 16 -2 19 1 4 3 -2 6 -13 5 -11 0 -14 -3 -6 -6z"/>
<path d="M1700 2500 c0 -5 4 -10 9 -10 6 0 13 5 16 10 3 6 -1 10 -9 10 -9 0
-16 -4 -16 -10z"/>
<path d="M1635 2470 c3 -5 8 -10 11 -10 2 0 4 5 4 10 0 6 -5 10 -11 10 -5 0
-7 -4 -4 -10z"/>
<path d="M1648 2413 c-14 -3 -6 -19 42 -79 33 -42 78 -112 100 -157 35 -74 44
-103 65 -199 4 -22 10 -27 28 -24 12 3 92 5 178 5 l156 1 6 103 c6 109 17 150
54 210 15 24 19 37 11 37 -55 2 -281 39 -406 66 -212 47 -201 46 -234 37z"/>
<path d="M1518 2351 c-59 -38 -88 -69 -88 -98 0 -28 15 -29 58 -3 21 13 42 18
54 14 38 -12 95 -67 119 -116 19 -37 43 -183 34 -198 -7 -12 14 -13 78 -4 44
6 46 8 41 33 -13 54 -58 157 -93 210 -65 101 -136 191 -151 191 -3 0 -27 -13
-52 -29z"/>
<path d="M2123 1790 c211 -11 358 -32 467 -65 137 -42 128 -40 104 -22 -68 51
-274 86 -544 92 l-195 4 168 -9z"/>
<path d="M2390 1600 c22 -40 40 -75 40 -77 0 -2 -18 -31 -40 -63 -22 -32 -40
-61 -40 -64 0 -4 13 -6 29 -6 21 0 34 9 52 35 13 19 26 35 29 35 3 0 16 -21
30 -48 21 -39 30 -48 57 -50 l33 -3 -40 69 c-22 38 -40 74 -40 80 0 7 16 34
35 61 43 59 44 71 6 71 -24 0 -35 -8 -55 -41 l-24 -42 -26 52 c-15 28 -33 51
-40 51 -8 0 -21 3 -30 6 -10 4 -2 -19 24 -66z"/>
<path d="M2280 1610 c0 -53 -16 -69 -23 -22 -2 15 -5 -19 -6 -75 -1 -97 0
-103 19 -103 19 0 20 7 20 125 0 69 -2 125 -5 125 -3 0 -5 -22 -5 -50z"/>
<path d="M2201 1524 c0 -11 3 -14 6 -6 3 7 2 16 -1 19 -3 4 -6 -2 -5 -13z"/>
<path d="M2176 1491 c-3 -5 1 -11 9 -15 8 -3 15 -1 15 4 0 13 -18 22 -24 11z"/>
<path d="M2180 1445 c0 -18 -21 -20 -40 -2 -12 10 -12 9 -1 -5 19 -25 51 -23
51 2 0 11 -2 20 -5 20 -3 0 -5 -7 -5 -15z"/>
</g>
</svg>
