<svg id="Layer_1" data-name="Layer 1" xmlns="http://www.w3.org/2000/svg" viewBox="0 0 130 80"><defs><style>.cls-1,.cls-9{fill:#86898e}.cls-2{fill:#99c73f}.cls-2,.cls-3,.cls-4,.cls-5,.cls-6,.cls-7,.cls-8,.cls-9{fill-rule:evenodd}.cls-3{fill:#d42534}.cls-4{fill:#8d295c}.cls-5{fill:#ea2966}.cls-6{fill:#3cbebc}.cls-7{fill:#fcda1b}.cls-8{fill:#32373a}</style></defs><title>Artboard 1</title><path class="cls-1" d="M42.09 72.16h4.15v1.38h-2.71v1.34h2.71v1.35h-2.71v1.94h2.71v1.38h-4.15v-7.39zm8.77 2.69l-.86.85a1.49 1.49 0 0 0-1-.51.62.62 0 0 0-.37.1.29.29 0 0 0-.14.24.3.3 0 0 0 .09.2A1.67 1.67 0 0 0 49 76l.51.25a3 3 0 0 1 1.12.8 1.63 1.63 0 0 1-.25 2.17 2.14 2.14 0 0 1-1.47.49 2.37 2.37 0 0 1-2-.93l.87-.92a2 2 0 0 0 .58.45 1.31 1.31 0 0 0 .59.17.71.71 0 0 0 .45-.13.37.37 0 0 0 .17-.3q0-.32-.61-.62l-.48-.23q-1.36-.67-1.36-1.67a1.44 1.44 0 0 1 .51-1.11 1.89 1.89 0 0 1 1.37-.47 2.33 2.33 0 0 1 1 .23 2.24 2.24 0 0 1 .82.67zm1.38-2.78h1.4v2h.84v1.18h-.84v4.29h-1.4v-4.27h-.72v-1.18h.72v-2zm7.15 2h1.4v5.47H59.4V79a2.76 2.76 0 0 1-.83.55 2.41 2.41 0 0 1-.9.17 2.54 2.54 0 0 1-1.88-.82 2.82 2.82 0 0 1-.79-2 2.89 2.89 0 0 1 .77-2.08 2.49 2.49 0 0 1 1.87-.81 2.46 2.46 0 0 1 .95.19 2.61 2.61 0 0 1 .82.56v-.6zm-1.48 1.13a1.45 1.45 0 0 0-1.09.45 1.59 1.59 0 0 0-.43 1.15 1.61 1.61 0 0 0 .44 1.2 1.45 1.45 0 0 0 1.09.46A1.48 1.48 0 0 0 59 78a1.62 1.62 0 0 0 .44-1.18 1.57 1.57 0 0 0-.44-1.16 1.5 1.5 0 0 0-1.11-.44zm.36-4.1h1.67l-1.89 2H57l1.23-2zm12.54 6.1h-4.53a1.46 1.46 0 0 0 .52.93 1.67 1.67 0 0 0 1.08.34 1.91 1.91 0 0 0 1.37-.47l1.19.54a2.78 2.78 0 0 1-1.06.91 3.4 3.4 0 0 1-1.47.29 3 3 0 0 1-2.15-.81 2.73 2.73 0 0 1-.83-2 2.83 2.83 0 0 1 2.9-2.9 2.85 2.85 0 0 1 3 3v.26zm-1.41-1.08a1.39 1.39 0 0 0-.55-.74 1.63 1.63 0 0 0-1-.29 1.71 1.71 0 0 0-1 .32 1.79 1.79 0 0 0-.52.71zm2.55-2.05h1.4v.56a3.36 3.36 0 0 1 .87-.54 2.14 2.14 0 0 1 .8-.15 2 2 0 0 1 1.42.57 1.91 1.91 0 0 1 .49 1.43v3.61h-1.4v-2.4a5.89 5.89 0 0 0-.09-1.3.88.88 0 0 0-.31-.49.9.9 0 0 0-.55-.17 1.05 1.05 0 0 0-.74.28 1.48 1.48 0 0 0-.43.77 6.2 6.2 0 0 0-.06 1.11v2.2h-1.4v-5.46zm9.47-2h1.4v2h.83v1.18h-.83v4.29h-1.4v-4.27h-.72v-1.18h.72v-2zm3.58-.23a.89.89 0 0 1 .64.26.86.86 0 0 1 .26.63.84.84 0 0 1-.26.63.91.91 0 0 1-1.54-.65.84.84 0 0 1 .26-.62.89.89 0 0 1 .64-.25zm-.71 2.25h1.42v5.47h-1.45v-5.47z"/><path class="cls-2" d="M64.17 17.01L47.22.3l11.15 22.51 5.8-5.8z"/><path class="cls-3" d="M81.63 35.44L93.21 12.4 81.03.49 64.24 34.66l3.6 7.25 13.79-6.47zm13.18 11.52h11.7l10.8-10.83-22.5 10.83z"/><path class="cls-4" d="M70.34 46.96h24.47l22.5-10.83-12.03-11.85-23.65 11.16-13.79 6.47-.96 2.34 3.46 2.71z"/><path class="cls-5" d="M81.03.49L64.17 17.01l-5.8 5.8 3.65 16.37L81.03.49z"/><path class="cls-6" d="M33.46 46.96h18.92l-5.74-11.49-23.52-11.25-12.06 12.02 22.4 10.72z"/><path class="cls-7" d="M52.38 46.96h17.96L47.22.3 35.24 12.37l11.4 23.1 5.74 11.49z"/><path class="cls-5" d="M21.71 46.96h11.75l-22.4-10.72 10.65 10.72z"/><path class="cls-8" d="M4.54 66.81h-4V53.5h4.63l3.41 6.31L12 53.48h4.95V66.8h-4.39v-5.29l-2.45 5.33H7.17L4.6 61.49l-.05 5.32zM18.31 53.4h4.56v13.43h-4.56V53.4zm13.14-.19a7.37 7.37 0 0 1 7.08 4.9l-4.48 1a2.89 2.89 0 0 0-2.69-2 3.11 3.11 0 0 0 0 6.2 2.9 2.9 0 0 0 2.73-2.13l4.52.84a7.35 7.35 0 0 1-7.16 5.17 7 7 0 1 1 0-13.92zm8.22.22h4.46v4.8h4.32v-4.8h4.46v13.4h-4.45v-4.9h-4.32v4.9h-4.46V53.42zm21.78-.26a7 7 0 1 1-7.33 7 7.17 7.17 0 0 1 7.33-7zm0 3.88a3.11 3.11 0 1 1-3 3.11 3 3 0 0 1 3-3.11zm11.79 9.79H68.5l5.28-13.44h5.14l5.28 13.41h-4.78l-.56-1.62h-4.94l-.67 1.64zm4.46-5.21H75L76.36 58l1.35 3.62zm13.61-8.42a7.37 7.37 0 0 1 7.08 4.9l-4.48 1a2.89 2.89 0 0 0-2.69-2 3.11 3.11 0 0 0 0 6.2A2.9 2.9 0 0 0 94 61.13l4.52.84a7.35 7.35 0 0 1-7.16 5.17 7 7 0 1 1 0-13.92zm11.46 13.63H98l5.27-13.39 1.21 2.07 1.38 2.37 1.38-2.37 1.21-2.07 5.27 13.37h-4.78l-.55-1.62h-4.94l-.68 1.64zm4.47-5.16h-2.68l1.33-3.62 1.35 3.62zm11.54 5.14h-4.48V53.5h3.81l5.51 6.19.06-6.21h4.95V66.8h-4.38l-5.4-5.94-.06 5.94z"/><path class="cls-5" d="M105.87 55.82l1.29-2.28 1.3-2.28h-5.17l1.29 2.28 1.29 2.28z"/><path class="cls-9" d="M38.51 74.8c-12.95-.29-26.06-1.54-37.94 0 12 1.63 24.79.53 37.94 0zm53 0c12.95-.29 26.06-1.54 37.94 0-12 1.63-24.79.53-37.94 0z"/></svg>