<svg data-name="Layer 1" xmlns="http://www.w3.org/2000/svg" viewBox="0 0 400 314"><title>icon-Artboard 1</title><path d="M102.3 96.5c-.4.2-.3.2-.1.3a.37.37 0 0 0 .1-.3m-.7.8a4.2 4.2 0 0 0-.2.5c.1-.2.4-.4.5-.6a.37.37 0 0 0-.3.1zM193 56a2.22 2.22 0 0 0 2.2-2.2v-6.3a.32.32 0 0 1-.3-.3c.1-.3.2-.3.3-.2v-5a2.2 2.2 0 1 0-4.4 0v11.8A2.22 2.22 0 0 0 193 56zm-4.9 33.1zm99.8 7v.9a2.07 2.07 0 0 1 1-.6c-.2-.1-.8-.2-1-.3zm-284.4 2c.1-.5.8-.4.8 0-.2.6-.4-.1-.8 0zm29.8 10.4C20.6 106.2 9.4 102 3.5 97.1a2.22 2.22 0 0 0-3.1.3 2.18 2.18 0 0 0 .3 3c4.1 3.4 10.4 6.5 17.9 8.9 0-.1.1-.1.1-.2.2 0 .3.2.2.4 1.4.4 2.8.9 4.3 1.3h.6c0 .1-.1.1-.2.1l2.2.6c.4-1.3 1.9-.7 1.9-.7s1.1-.6 1.2-.4c.2.6-1.5.7-2.9 1.1 2.1.5 4.2 1 6.4 1.4h.4a2.13 2.13 0 0 0 2.1-1.8 2 2 0 0 0-1.6-2.6zm109.2 79.8h.8v.8h-.8zm3.2.7h.8v.8h-.8zm-22.1 7.9c.1-.5.8-.4.8 0-.3.3-.7.5-.8 0zm-5.5.4c-1 1.4-2.3.2 0 0zm-23.6 7.5c-.6-.2 0-1.4.5-.6v.5a1.27 1.27 0 0 1 .6.1c-.6.9-1.7.1-1.1 0zm-30.4 13.8c-.7-.9 1.1-.5 1.2.8-.3-.4-.9-.5-1.2-.8zm-31.5 34.2c.2-.6.3 0 .8 0-.1.5-.8.4-.8 0zm-2.7 2c.1-.5.8-.4.8 0-.2.6-.4 0-.8 0zm-3.2 10.6c-.7-.3.2-.4.8-.4.6-1.1.3 1-.8.4zm150.1-85.8c1.7.2-.4 2.3 0 0zm-34 12c.2 0 .2.1.3.1 1.2-.4 2.5-.8 3.8-1.1-.1-.1-.1-.4-.1-.7.5.1.7.3.7.5 1.4-.4 2.8-.8 4.2-1.3l1.4-.4c.4-1.6 2-2.6 3.4-1.4a.52.52 0 0 1-.2.4l12.9-3.9c3.1-.9 6.3-1.9 9.4-2.9a3.47 3.47 0 0 1-1.2-4.1c-3.2 1-6.4 1.9-9.5 2.9l-17.5 5.2c-3.4 1-6.8 2-10 3 0 0 0 .1-.1 0-2.6.8-5.2 1.5-7.6 2.3.8.4-.7 2.9-1.3 2.7-.1-1.2.9-1.3.8-2.5-9.6 2.8-18.2 5.4-25.3 7.4a149.9 149.9 0 0 0-34.8 14.7v.3h-.5c-30.3 17.7-43.2 40.7-47.3 49.7a.75.75 0 0 1 .5.1c-.7.9-3.6 4.1 0 4.9a7.35 7.35 0 0 1-2.1 0 2.12 2.12 0 0 0 1.4 1.5 1.7 1.7 0 0 0 .7.1 2.13 2.13 0 0 0 2-1.5 47.47 47.47 0 0 1 3.5-7.6l-.1-.1c.1-.1.1-.2.2-.2 6.4-11.9 22.3-34.5 56-49.8-.6.1-.8-.2-.7-.8h.9v.8a156.85 156.85 0 0 1 21.4-7.8c1-.3 2.1-.6 3.2-.9l-.6-.3a5.87 5.87 0 0 1 .6-2c1 .3 1.1 1.2.8 2.1 8.6-2.5 19.1-5.6 30.7-9.1.1-.2.1-.2.1-.3zM44.9 85.9v-.4c-.1.2-.1.4-.2.6a.22.22 0 0 1 .2-.2zm57.7 74c0 .1-.1.1-.1.2a.31.31 0 0 0 .1-.2zm185.6-113c.2.9-.6.8-1.2.8a1.13 1.13 0 0 1 1.2-.8zm1.2 3c.7 0 1.4-.1 1.7.3-.2.7-.9 1-1.1 1.7-1.1.2-.4-1.3-.6-2zm2.7 12.7c-.1.5-.7.4-1.2.4.1-.4.8-.3 1.2-.4zm-1.9-10.2c.1-.5.8-.4.8 0-.4.2-.7.5-.8 0zm0 22c.1-1 1.3-.1 1.6 0-.3 1.2-.9-.3-1.6 0zm2.3 31.5c1 .5-.2.6-.4.8s.2.5.4.4c-.9.5-1.2.8-1.2-.4a1 1 0 0 0 1.2-.8zm-3.1-17.3c.1-.5.7-.3 1.2-.4-.1.5-.7.4-1.2.4zm-.4 5.1a1.13 1.13 0 0 1 1.2-.8 1 1 0 0 1-1.2.8zm1.2-9H289v-.8c.8-.1 1.2.1 1.2.8zm-2-18.9c0-.7.5-.8.4-1.6a2.14 2.14 0 0 0 1.2.4c-.4.6-.6 1.3-1.6 1.2zm25.6 2.4c.1-.3-.1-.4-.4-.4.1-1 .7.6 1.6 0-.3.8-1.4 1.4-2 .8 0-.4.5-.4.8-.4zm2.4-1.2c-.2 1.2-.8-.4-1.6 0 .1-1 1.3-.1 1.6 0zm0-1.6c-.1.5-.8.4-.8 0 .1-.6.3 0 .8 0zm-.8-5.2h.6v.6h-.6zm2.3-4.3c-.1.5-.7.3-1.2.4.1-.4.8-.3 1.2-.4zm.4-9.4c-.3.2-.7.5-.8 0 .1-.5.8-.4.8 0zm18.2-19.2h.8a4.92 4.92 0 0 1 3.3 2c5.8 7.2 6 28.7 5 36.5-.1.8-.2 1.7-.3 2.6a1.5 1.5 0 0 1 1-.2c0 .4-.6.4-1 .4-1.5 11-5.8 30.6-16.5 30.6-.3 0-.6-.1-.9-.1.3.7-1.7 1.4-2.9 1.8a10.28 10.28 0 0 1-3.9.4c.8-1.3 5.1-.5 6.6-2.2a9.2 9.2 0 0 1-6.8-3.4 15.62 15.62 0 0 1-3-6.2c-.1.1-.1 0 0-.1-1.8-6.3-1.8-14.6-.9-22.1l.5-3.6c.1-.5.2-1.1.3-1.6l.2-1c.2-1 .4-2 .6-2.9-.1-.1-.1-.1 0-.1a2 2 0 0 0 .1-.8 2.81 2.81 0 0 0-.5-.1c0-.3.3-.4.6-.4 3.7-19.6 9.8-29.5 17.7-29.5zm-12.7 7c-.5 1.6-.8-.1-2 0 .4-1.2 1.1.5 2 0zm-.3-1.6c-.1.5-.7.3-1.2.4 0-.5.7-.3 1.2-.4zm17.3-8.3c1.3-.9-1 1.4 0 0zm7.5 46.1c-.4.4-.1 1.5-1.2 1.2.4-.4.1-1.5 1.2-1.2zm0-5.1c.6-1.2.3.9-.8.4-.7-.3.2-.4.8-.4zm.7-35.8c-.1.5-.7.3-1.2.4.1-.5.8-.4 1.2-.4zm.8 41.7c.9-.9-.6 1.1-1.6.8.5-1.1.4-1.2 1.6-.8zM317 92.5c.1-.6.5 0 .4.4-.1.7-.5.1-.4-.4zm-1.2-2.7a5.94 5.94 0 0 0-.4.8c-.1-.1-1.1-.6-1.2-.4.2-.7 1-.4 2-.8.1.4-.3.3-.4.4zm54.7-.8c.5 0 .3.7.4 1.2h-1.2c.2-.5.7-.6.8-1.2zm.8.4c.5-.5.4-.8-.4-.8.2-2 2.4.9.4.8zm11-10.2c.8-.1 1.3.1 1.2.8h-1.2zm13.4 9a.85.85 0 1 1 0 1.6zm1.2 6.7h-.8v-.8h.8zM369.3 119c.1-.5.7-.4 1.2-.4-.1.4-.7.3-1.2.4zm-1.6 1.5c-.8 1.2-2.5-.4 0 0zm-11.8 5.5c-.3-.6-1.2-.6-1.2-1.6h.8c-.6-.7-.4-.9.8-.8a4.51 4.51 0 0 0-.4 2.4zm-12.2 2v-.8c.8-.1 1.2.1 1.2.8zm-2.7 2.4c-.4.4-.9.3-.4 0s.8-.4.4 0zm-5.5 1.5c.1-.5.8-.4.8 0-.2.6-.4 0-.8 0zm-3.2 1.2c-.2-.8.3-1 .4-1.6 1.1.1.8 1.7-.4 1.6zm0-3.5c.4.1.3.8.8.8-.2 1-1.2 0-.8-.8zm-34.2 11s-.5.8-.4.8c-.7.3-1.2-1.4.8-1.2.1.4-.3.3-.4.4zm-13.4 5.5h-.8v-.8h.8zm-1.6 2.4c.2-.6.3.1.8 0-.1.5-.8.4-.8 0zm-1.7-2.7v-.3c1.4-1.4-.7 2 0 .3zm-13.3 7.4c.1-.5.8-.4.8 0-.3.3-.7.5-.8 0zm-9.8 1.6c-.6 0-.7-.2-1.2-.4-1.1-.4 1.7-.7 1.2.4zm-.8 1.2c.2-.6.3 0 .8 0-.1.5-.8.4-.8 0zm-1.3 1h-.6v-.6h.6zm-5.4.5c.1-.5.7-.3 1.2-.4-.1.5-.7.4-1.2.4zm-1.2.4c.2-.3-1.2-.3-.8 0-.3-.2-.3-.3 0-.4 0 0 1.5-.5.8.4zm-8.3 2.2c-.7.1-.9-.4-.9-1.1.7.1.6-.5 1.4-.3.3.9-.9.3-.5 1.4zm-24.6 6c-.1-.4.3-.5.3-.9a1.22 1.22 0 0 0 .9.3c-.3.6-.7 1.2-1.2.6zm-25.8 8c.1-.2-1.2-.4-1.2-.4-.1-.6 2.2-.6 1.2.4zM276 44.9c-.4.4-.9.3-.4 0s.9-.4.4 0zm-3.9 3.2c.1-.5.8-.4.8 0-.2.5-.4-.1-.8 0zm-1.6 7.5c-.2 0-.5-.1-.4-.4.7-1.3 1.6.3.4.4zm-4.7 15.7c.2-.5.8-.7 1.6-.8.3 1.2-.9.7-1.6.8zm-.5 43.6c.3-1.4-1.2-1.1-.9-2.6.8.4 2.7 2.4.9 2.6zm-2-3.7c-1.7.8-1.4-1.9-.6-2.9a2.05 2.05 0 0 1 2 .6c-.8.2-2.3 1.2-1.4 2.3zm-.3 9.7h-.8v-.8h.8zm.8-20.1c-.3.2-.7.5-.8 0 .1-.5.8-.4.8 0zm-1.6-8.8c.1-.4.7-.2 1.1-.3 0 .7-.7.7-1.1.3zm4.8-22.7c-.6 1.5-2.3-.1 0 0zm-5.6-1.9c1-.4 1.8.6 3.9 0 .1-1.1-2.2.3-1.6-1.2a3.51 3.51 0 0 1 1.6.3c.1-.6.8.1.1.1a3.79 3.79 0 0 1 1.4 1.6c.2 1.6-1.5-.5-1.2-.4-1.1-.2-3.2.8-4.2-.4zm-2.3-11.1c.2-.6.4 0 .8 0-.1.5-.8.4-.8 0zm-16.6 6.3c.5-.8-.2-1.6 1.2-.8a1 1 0 0 1-1.2.8zm-1.8 11.6c-.4.1-.6.2-.7.2.1 0 .3-.1.7-.2.1 0 .2-.1.3-.1 1.3-.5.4-.2-.3.1zm-4.8 35q1-.3.9.9c-.4-.4-1.1-.2-.9-.9zm1.5 1.9c.1-.1-1.2-.4-1.2-.4-.1-.6 2.2-.6 1.2.4zm-3.5-52h-.8c.1-.3-.2-.4-.4-.4-.2-.8 1.8-.6 1.2.4zm-5.9-.4c.7-1.4 1.1.7 2 .4-.4 1.1-1.4-.4-2-.4zm-15 36.4c-.2-.9.3-1.1.3-1.7 1.4.1 3.2-.3 3.1 1.2-1.6 0-1.9 2.1-3.4.5zm1.1 2c.1-.8 1.2.3 0 0zm.9 6.9h-.8v-.8h.8zm-1.5 13.7c-.3.8-1.6.5-1.2 2-.9-.2-1-1-.7-1.7-.6 0-.8-1.3.3-.4.6-.3 1.1-.4 1.6.1zm1.5-27.1c-.3.2-.7.5-.8 0 .1-.5.8-.4.8 0zm.8-3.9c-.1.5-1 .3-1.6.4.1-1 1-1 1.6-.4zm-5.2 40.9c-.4 0-.3.5-.4.8-.5 0-.3-.7-.4-1.2.9-.3 2.6.4.8.4zm-4.3 5.5c.1-.5.8-.4.8 0-.2.6-.4 0-.8 0zm-9.5 3.2c-1.3-.8-.3-.3 0-.8 2.1 0 .5.2 0 .8zm-.7-6.3c1.9 0 1 .9 1.6 1.6a1.8 1.8 0 0 1-1.6 0c-.3-.2.8-.4.8-.4.1-.3-1.2-.6-.8-1.2zm-.4-1.6c-.5.3-.9-.3-.4-.4.1 0 .3.1.4 0 .6-.3.3.2 0 .4zm-.8-9.4c.8-.1 1.2.1 1.2.8h-1.2zm2.7 15.3c-.9 0-.8-1-.8-2 1.8.1.8.7.8 2zM192.9 67c.1-.4.7-.3 1.2-.4-.1.4-.7.3-1.2.4zm0 50a1.13 1.13 0 0 1 1.2-.8c.2.8-.6.7-1.2.8zm-.8-14.6c.7-1.9 3.1-.6 0 0zm-.4-7.9c-1.4-1 1.1-1.5.8 0-.1-.5-.9-.1-.8 0zM189 91c.6-1.9 1.9-.5 0 0zm-1.2 18.1c-.6-.2-1-.2-1.6-.4-1-.4 2-.7 1.6.4zm-2 16.5c-.1 0-1.1-.1-.8-.4s2 1 .8.4zm-.8 1.2c.1-.5.7-.3 1.2-.4 0 .5-.7.4-1.2.4zm-.7 2c0-.5.7-.3 1.2-.4-.1.5-.8.3-1.2.4zm.4 2.4c-1.9.4-.7-2.1 0-.8zm1.9-24.1c-.2.6-.3-.1-.8 0 .1-.5.8-.4.8 0zm-6.3 34.3c1.2-.9-.2.9-.4.9a.32.32 0 0 0 .3.3 21.15 21.15 0 0 1-3.1.8c.5-1.3 2.1-1.5 3.2-2zm-3.1 4.3c-.1-.7.3-.7.8-.8-.5-.5-.1-.6 0-1.2.6.3 1.2.6 1.2 1.6-1.2-.3-1.1.6-2 .4zm0 1.6c-.5.5-.6.1-1.2 0 .1-.4.8-.3.8-.8.4.1.3.8.8.8-.1.4-.4.2-.4 0zm-13.4 2.4c.5-1 2.4 0 2.7.4 1 .7-1.8-.6-2.7-.4zm1.9 2.4c.9-1 1 .9 0 0zm-.7-4.4c-1 1.3-1.6-1.4 0 0zm-3.6-9.4s-1.1-.1-.8-.4 1.9.9.8.4zm-2.3-10.3c.1-.5.8-.4.8 0-.4.2-.8.5-.8 0zm-.8 2.8c.4.2.4.9 1.2.8-.2.9-1.6 0-1.2-.8zm-.4-19.7v-.8c.8-.1 1.2.1 1.2.8zm1.6-13c-.1.5-.7.3-1.2.4 0-.5.7-.4 1.2-.4zm-1.2-28.4c.1-.5 1-.3 1.6-.4-.2.6-1 .4-1.6.4zm.4 4.7h-.8v-.8h.8zm1.5-7.8c.5.5.1 1 0 .4-1 0-.6-.5 0-.4zm2 22.8c.1.8-1.4.2-2 .4 0-.8 1.4-.2 2-.4zm0-32.7c0-1.3.1-2.6.2-3.8 0-.1.1-8.6 4.6-8.6h.1c2.5 0 4.3 1.7 5.3 5.1.5-.2 1.5-.1 1.1.6a3.08 3.08 0 0 1-1-.1c.2.8.4 1.7.6 2.8 2.1 13.8 1.3 32.4-6.2 45.5 0 .1 0 .2-.1.2a33.11 33.11 0 0 1-4.4 6V93.2a2.62 2.62 0 0 1-1.3.6c-.4-1.1.6-.8 1.3-.8V81.1c-.5-10-.5-18-.2-24.4-.3.4-.9.4-.8 1.2-.9-.1 0-1.5.8-1.2zm12.2-11c.6-1.1.3.9-.8.4-.7-.3.3-.4.8-.4zm.4 24.4c.4-.3 1.9 1 .8.4-.1 0-1.1-.1-.8-.4zm2.8-11c.9.9-1.1-.3-2 0 0-.6.1-1.1-.4-1.2.5-.8 1.3 1.3 2.4 1.2zm-1-1.2c.5-1 .9 1 0 0zm-.2 11.8c.1-.5.8-.4.8 0-.4.3-.7.5-.8 0zm-4.9 21.7c.8-.1 1 .4.9 1.1-.8.2-1-.3-.9-1.1zm-1.8 2.7c-.2-.8.6-.8 1.2-.8a1 1 0 0 1-1.2.8zm-8.5 23.9c0-.8 1.1.3 0 0zm-.2 2.9c.1-.5.7-.3 1.2-.4-.1.5-.7.4-1.2.4zm-17.7-11c0-1.5 1.3-.7 1.6-.4s-.8.1-1.6.4zm-1.6-7.5c-.5.4-.9.3-.4 0s.9-.4.4 0zm-.4 18.9c-.4-.1-.6-.5-1-.6-.1 2.4-.4 4.8-.7 7.4.2 0 .4.1.4.3-.1.4-.2.2-.5.1-.3 2.3-.7 5.1-1.3 8.2h.6c.3.5-.2.5-.7.4-.4 2.3-1 4.7-1.6 7 .2-.6 2.2-.1 1.9.8-.9-.4-1.1.1-1.9-.7-.5 1.8-1.1 3.5-1.7 5.2a1.38 1.38 0 0 0 1.3-.5c.7.7-.5 1-1.5 1-2.6 6.5-6.4 11.7-11.9 11.7a9.72 9.72 0 0 1-8-3.5 9.91 9.91 0 0 1-1.1-1.7 2 2 0 0 1-.9-1.8 33 33 0 0 1-2.4-11c0-.1-.1-.1 0-.2a65.93 65.93 0 0 1 0-7.7c0-.4.1-.8.1-1.1h-.3c-.5-.8 0-.7.4-.5.4-3.1.8-6.3 1-9.8l.2-.9c.7-4.3 1.6-8.1 2.5-11.5-1.3.8-2.4 1.1-3.7.2 1-.5 2-.1 3.7-.4.5-2.1 1.1-4 1.7-5.8 2.4 4.2 6.9 8.1 12.6 10.5a31.22 31.22 0 0 0 11.9 2.4c0 .4-.1.9-.1 1.3.3-.2.9-.1 1.3-.1a5 5 0 0 0-.3 1.3zm-2.7 26.8c-.5.3-.9-.3-.4-.4h.4c.6-.3.3.2 0 .4zm-19.3 16.1c-1.7-1.3.3-.3.4 0 .1.7-.5 0-.4 0zm-2.4-2.7c.1-.5.7-.3 1.2-.4-.1.5-.7.3-1.2.4zm-5.9-4.7c-.1.3.1.4.4.4-.1.6-.7-.3-.8.4-.4-.1-.3-.8-.8-.8.1-.4.4-.2.4 0 .6.1.7-.4 1.2-.4.6.2 0 .4-.4.4zm-4.3-7.1c-.2-1.2 2-.1 1.6-1.6.5.1.6.7 1.2.8-.7.6-1.8.6-2.8.8zm.8-5.9c-.1.5-.7.3-1.2.4 0-.5.7-.4 1.2-.4zm0-2.8c1.7-.1 0 .6 0 1.2-2.5-.2.2 0 0-1.2zm1.2-17.3c.8-.4.8-.4.4.4-.9.2-.9-1.6-.4-.4zm1.9-3.2c1.5.8-1.4 1.1-1.6.4.2-1.4 1.5 1 1.6-.4zm2.4-13c.5 0 .3.7.4 1.2h-1.2c.1-.5.7-.6.8-1.2zm4.3-2.3c-.1.5-.7.3-1.2.4.1-.5.7-.4 1.2-.4zm-.4-3.2c-.6.8-.9-.3-2 .4.1-1 1.5-.9 2-.4zm1.8-.8a5 5 0 0 1-.2-1.2c2.9-5.9 6.2-9.3 10.1-10.1.2-1.1 1.1-2.1 2.3-1.2a3 3 0 0 1-.2 1h.7a7.13 7.13 0 0 1 5 2.8c3.1 3.8 4.5 11.5 4.4 21.9a27.71 27.71 0 0 1-10.4-2.1 23.71 23.71 0 0 1-8.9-6.4 6.58 6.58 0 0 0-.4 1.5c-.8-.4-1.7-.6-1.4-2 .3-.1.8-.2 1.2-.3a14.53 14.53 0 0 1-1.9-3.4c-1.5.7-2-.4-.3-.5zm1-7.2c.9-.2 1 .3 1.7.3-.3.8-.5 1.8-1.7 1.7a1.82 1.82 0 0 1 0-2zm-25.2 76.1a1.9 1.9 0 0 0-1.2-.4c.3-.6.3-1.5 1.6-1.2-.7.9.3.8-.4 1.6zm-14.4 9.2c-4.3.4-1-5.5.6-2-1.3.1.4.3-.6 2zm-6.9-2.5c-1.5-.9 1.1.2.8.4-.4.4-.7-.3-.8-.4zm-16.8-4.4c-.4-.1-.5-.5-.9-.6 0-.3.5-.2.9-.3zm-3.3-2.3c.1-.5.7-.3 1.2-.4 0 .5-.7.4-1.2.4zm-11.4-14.9c-.1-.8 1.4-.2 2-.4 0 .8-1.4.2-2 .4zm-.8-8.3c.1-.6 1.2-.1 1.2-.8 1.2.5-.7 1.8-1.2.8zm-.8 1.2c.1-.5.7-.3 1.2-.4-.1.4-.7.3-1.2.4zm-.4-2.4c-.1 0-1.1-.1-.8-.4.5-.3 2 1 .8.4zm-.8-8.2c1.2.8 1 1.3 2.8.8-.3.8-1.1 1-2 1.2a1.13 1.13 0 0 0-1.2-.8 1.37 1.37 0 0 0 .4-1.2zm-.7-3.6c.4-.3 1.9 1 .8.4-.1 0-1.2-.1-.8-.4zm-.4-4.3c.5-.5.6-.2 1.2 0-.1.4-.8.3-.8.8-.4-.1-.3-.5-.4-.8zm0-5.9c1.3-1-1 1.3 0 0zm1.1 2.3c.6-1.2.3.9-.8.4-.6-.3.3-.4.8-.4zm1.2-5.5c1.2.3-.4.8 0 1.6-1 0-.1-1.3 0-1.6zm.8 13.4c1.1.4-.2 1.6-1.2 1.2-.1-.9 1.2-.4 1.2-1.2zm2.4-31.1s1.4-.5.8.4c.2-.3-1.2-.3-.8 0-.3-.2-.4-.3 0-.4zM49.2 82h1.1c-.3.9-.2 1.3-.8.7-.1 0-.1-.1-.2-.2l-.2-.2a.1.1 0 0 1 .1-.1c.1 0 0-.1 0-.2zm2.9-3.7c.4 1-1.2 1.2-.3 1.7-.5.6-1.6-.5-1.4-1.4.7-.4.8-.7 1.7-.3zm3-7.8c-.2.6-.3 0-.8 0 .1-.5.8-.4.8 0zm15-15.4c0 .5-.7.4-1.2.4 0-.4.7-.3 1.2-.4zm15.3-7c0 .5-.7.3-1.2.4.1-.5.7-.4 1.2-.4zm14.6 2.3c-.1 1-1.3.1-1.6 0 .3-1.2.9.4 1.6 0zm5.1 3.6c.4.1.3.8.8.8.1.3-.2.4-.4.4h-.8a2.45 2.45 0 0 0 .4-1.2zm2.4 26c.7-.2.6 1.8-.4 1.2-.1-.7.3-.7.4-1.2zm1.2-4.8c-.2.6-.4 0-.8 0a.41.41 0 0 1 .8 0zm-.2-6.7c-.8-.8.9.8 0 0zm-4.6 22.9c-1 1.4-2.3.2 0 0zm-4.3 2c.1-.5.7-.3 1.2-.4-.1.4-.8.3-1.2.4zM85 107.1a1.13 1.13 0 0 1 1.2-.8 1 1 0 0 1-1.2.8zm-13.4 3.2c1.1-.1 2.2 0 2 1.2-1.1.5-1.8.2-2-1.2zm-6.3-.4c.1-.5.7-.3 1.2-.4 0 .5-.7.3-1.2.4zm-5.5 3.5c-.6.2.1-.5 0-.4 1.4-1.7.4.3 0 .4zm151.2-1.1c-.1-.6.4-.5.9-.6a1 1 0 0 1-.9.6zm70-72.9c-5.1 1.1-9.2 4.9-12.2 11.3 0-.1.1-.1.2-.2 1.1-.8-.2.6-.2.4a30.27 30.27 0 0 0-1.6 4h.3c0 .2-.2.3-.4.3-.8 2.3-1.5 4.8-2.2 7.6-1-6.2-2.7-10.2-5.3-12.3a8.11 8.11 0 0 0-7.3-1.5 12.72 12.72 0 0 0-6.4 3.3h.7c0 .5-.7.3-1.1.4-3.2 3.1-5.4 8-6.8 14.5-.2-.6-.4-1.2-.6-1.9h-.1v-.1a16.86 16.86 0 0 0-3.9-7 8.24 8.24 0 0 0-6.4-2.3q-6.9.6-10.2 12c.1-.1.4-.1.5-.2-.1.2.9 1.3.4 1.6s-.8 0-1.2-.3c-.5 2-1 4.1-1.4 6.5l-5.3 37.8a4 4 0 0 1 2 .9h-.1c.1 0 .2.1.3.2-.1.7-.7.7-1.1.3 0-.1.1-.2.1-.3a4.87 4.87 0 0 1-1.2-.1.35.35 0 0 0-.2-.1l-1.1 7.7c-1.1 8.8-4.6 15.5-7.2 16.2-.9-.2-1.7-1.8-2.5-4.4a.1.1 0 0 1-.1-.1c-.3-1-.5-2-.8-3.3-.3.1-.5 0-.1-.2-2.2-11-3.5-32-3.3-55.6-.2.2-.6 0-.6-.3.1-.5.3-.1.6 0 0-1.4 0-2.9.1-4.3 0-.1-.1-.3-.1-.4v-.3a2.14 2.14 0 0 0-1.2-2.3c-.4.3-.9.3-1.1-.2a2.24 2.24 0 0 0-1.9 1.7 3.55 3.55 0 0 1-.2 1c.3-.4.5 1 0 .2-.6 3.7-1.2 8.6-1.9 14.2-.2 1.6-.4 3.2-.6 5 .6.2 1.4 1.2.4 1.5h-.6c-.1.7-.2 1.3-.3 2a.76.76 0 0 0 .4-.1l-.5.5c-.4 3.1-.9 6.4-1.3 9.8.3-.5 1.3-.4 2.2-.4a.75.75 0 0 1-.6.7c.2.1.5.2.6.5-.1.8-.9.8-1.1 1.4-1.6-.1-1.2-1.4-.4-1.9h-.8c-1 6.8-2.2 13.8-3.6 20.2a1.65 1.65 0 0 1 2.7.3c-.3 1-2.1.6-1.7 2.3a2.45 2.45 0 0 1-1.5-.4c-2.5 10.5-5.7 19.2-9.9 22.1-.2.1-.3.2-.5.3h.8v.9c-.7.2-1-.1-.9-.8-2.1 1.3-3.7 1.7-4.9 1.1-3.1-1.6-4.4-9.2-4.4-13.6v-.1a1.09 1.09 0 0 1-.1-1.5h.1V128a23.93 23.93 0 0 1-1.3-2.1 1.4 1.4 0 0 1-.9-.3c0-.5.2-.5.5-.4a3.6 3.6 0 0 0-.5-.9 3.33 3.33 0 0 1 2.1-.9v-13.2c.7-.6 1.3-1.2 2-1.8 8.8-8.6 12.7-22 13.7-35.1 0 0-.1-.1-.1 0a.35.35 0 0 1 .1-.2c.2-2.1.2-4.2.3-6.2-.3 0-.6 0-.4.2-.3-.2-.3-.3 0-.4a1 1 0 0 0 .4-.1 96.58 96.58 0 0 0-1.1-14.7c-.9-6.3-3.3-9.3-5.8-10.7-.2.2-.6.2-1 .3.1-.4.5-.4.8-.4a9.44 9.44 0 0 0-4.3-1.1h-.1c-6.1.1-8.3 6.2-8.7 10.8.3.1.6.3.5.4s-.4.1-.5-.1c0 .6-.1 1.1-.1 1.6a263.78 263.78 0 0 0 0 28.4v1.2a2 2 0 0 1 1.7 1c-.8 1.1-2.1 1.2-1.4 3.2-.1 0-.1-.1-.2-.1v11c.2.1.4.2.2.6h-.2v10.3c-.4.3-.8.5-1.2.8.7 0 1.2.1.2.4-1-.1-1.2.6-1.6 1.2-.2-.1-.3-.3-.4-.4a6.73 6.73 0 0 0-1.1.7v.5c-.1-.1-.2-.1-.4-.2a24 24 0 0 1-3.7 1.7 3.08 3.08 0 0 0 1 .1c.1.5-1.4.7-1.6.1a21.7 21.7 0 0 1-4.2 1.1v-.8h-.1a.1.1 0 0 1 .1-.1c0-1.7 0-3.4-.1-5-.1.4-.7.3-1.1.4 0-.4.7-.3 1.1-.4a54.46 54.46 0 0 0-1.3-9.5h-.2c0-.1.1-.1.2-.2a22.69 22.69 0 0 0-3.8-8.6 11.9 11.9 0 0 0-7.9-4.5c-7.5-.8-12.6 4.3-16.3 11.1a1.24 1.24 0 0 1 .3.2.6.6 0 0 1-.4.1c-.2.3-.3.6-.5.9a2.35 2.35 0 0 0-.7 1.4 81.13 81.13 0 0 0-3.1 8.2c.5 0 1.1.8.3 1.2-.3-.1-.3-.5-.5-.7-1 3.5-1.8 6.9-2.4 9.7h.2l-.2.2c-.3 1.5-.5 2.8-.7 3.9.9-.8 1 1.1-.1.3 0 .2-.1.4-.1.6l-.2 1c-.1.7-.3 1.9-.5 3.4.4.1.9.4 1 .4-.2.9-.6.2-1.1 0-.2 1.3-.3 2.8-.5 4.5a1.56 1.56 0 0 1 1.2.6c-.1.4-.7.5-1.3.5 0 .7-.1 1.5-.1 2.3a92.73 92.73 0 0 1-2.7 11.7c.4.2.7.4.6.5-.3.2-.5-.1-.7-.3a58.56 58.56 0 0 1-3 7.5c.5-.1 1.2-.3.9-.9 1.8.6-.4.8-.8 1.6-.1-.1-.2-.1-.3-.2-8.7 17.7-21.3 20.1-22.1 20.3-4.8 1-15.1.6-23.6-7a30.78 30.78 0 0 1-5.6-6.8c-.3.2-.7.4-.6 1-.9-.1-.2-1.1.4-1.2a48.57 48.57 0 0 1-6.5-18.8c-.3-.2-.3-.3-.1-.3l-.3-2.7c-.1.1-.2.1-.4.2a1.27 1.27 0 0 1 .4-.9 98.79 98.79 0 0 1-.5-12.4h-.1v-.8h.1c0-1.3.1-2.6.2-3.9-.2-.1-.3-.3 0-.4.1-1.1.1-2.1.2-3.2a120.13 120.13 0 0 1 4.5-23.8 1.13 1.13 0 0 1-1.1.7 1.08 1.08 0 0 1 1.1-.8c.3-.9.5-1.7.8-2.5a.67.67 0 0 1 0-1h.3C52.5 76.1 60 66.9 67 61.2c-.4-.4.8-.6 1-1.3.2.1.3.2.4.2.8-.6 1.7-1.2 2.4-1.8l2.4-1.5c8.7-5 16.4-5.7 19.6-4.7 6.1 1.6 10.2 4.7 12.3 9.4a19.45 19.45 0 0 1 .8 2.2h.2c.3.5.2.7 0 .9 2.6 11.7-5.3 26.9-5.4 26.9a32.42 32.42 0 0 1-11.4 11 1.92 1.92 0 0 1 2 .5c-.4.4-1.8.7-1.6-.4-.9.1-.7 1.4-2 1.2 0-.2 0-.3-.1-.4-13.3 7-30.6 7.4-39.2 7a2.13 2.13 0 0 0-2.2 2.1 2.22 2.22 0 0 0 2.1 2.3c9.4.4 23.2-.1 35.3-4.7a.78.78 0 0 1-.6-.3c.8-1 1.1-.1.8.2a41 41 0 0 0 4.8-2.1 5.94 5.94 0 0 1 .8-.4h-.2a.4.4 0 0 1 .7-.2 38.23 38.23 0 0 0 11.1-8.9 1 1 0 0 1-1.2.1c0-.4.5-.3.8-.4 0-.6.2-1.5-.4-1.6.6-.9 1.4-.3 2.2.1a29.77 29.77 0 0 0 2-2.9 64 64 0 0 0 4.4-11c-.4.2-.6-.4-.7-.4-1.3-.8.5-.1.8.3a46.18 46.18 0 0 0 1.8-8.7h-.3c-.2.2-.7.1-.7-.2s.2-.3.4-.2c0-.7.4-1 .6-1.4.1 0 .1 0 .2.1a25.85 25.85 0 0 0-1.8-12.3c-2.6-5.9-7.7-9.9-15-11.8-2.9-.9-7.5-.7-12.7.7v.1l-.1-.1a47.82 47.82 0 0 0-12.9 6C60.6 59.6 51.5 68.9 45 85.1c.6-.2.6 1.3-.1 1.2-.3 0-.3-.1-.2-.2a117 117 0 0 0-6.7 28.6 1.33 1.33 0 0 0 1.4.3c-.1.6-.9.5-1.5.3l-.3 2.4c-2 21.2 1.4 35 6.3 44 .5-.3 1.1-.3 1.3 1-.6-.2-.8-.1-.8.1a2.09 2.09 0 0 0 .4.6c.4.5 1.1 1 1.6.9 0 .3-.5.3-1 0a37.69 37.69 0 0 0 6.3 7.5 33.51 33.51 0 0 0 20 8.5c-.1 0-.2-.1-.1-.2s.6 0 .9.2c.4 0 .9.1 1.3.1a25.92 25.92 0 0 0 5.1-.5c.6-.1 7.3-1.3 14.5-7.9-.1 0-.1-.1-.1-.2-.8.2-1 .8-2 .8.6-.5 1.4-1.6 2.3-.8a42.4 42.4 0 0 0 7.3-8.9c-1.5-.7.7-1.6.1-3.6.6-.2 1.4-.5 2-.1.8-1.5 1.6-3.2 2.3-4.9-.4.3-1.2.5-1.4.2s1-.4 1.2-.4v-.4a.52.52 0 0 1 .4.2c.5-1.2 1-2.4 1.4-3.7a34.13 34.13 0 0 0 1.6 5.7 1.21 1.21 0 0 0 .5-.5.76.76 0 0 1-.2 1.2 18.55 18.55 0 0 0 2.7 4.5 15.32 15.32 0 0 0 4.2 3.4c.7-.1.7.4 1.2.4 0 .1 0 .1-.1.2a14.61 14.61 0 0 0 6 1.2 11.62 11.62 0 0 0 4.2-.8c.2-.1.5-.3.7-.2a15.34 15.34 0 0 0 5.6-4.3c-.7 0-.7-1.5-.3-.4.7-.4.8-.4.5.1 5.2-6.3 8.1-16.9 9.5-25.8-.4-.1-.2-.2 0-.3.3-1.9.6-3.8.8-5.5.4-3.2.7-6.7.9-10.3a34.17 34.17 0 0 0 13.2-5.1v3.1h.6c.3.8-.3.8-.6.9v17.4a23.44 23.44 0 0 0 .3 3.7.44.44 0 0 0 .3.1.76.76 0 0 1-.2.4c.6 4.4 2.1 11 6.5 13.2a7.31 7.31 0 0 0 3.3.8c2.1 0 4.3-.9 6.8-2.6a20.58 20.58 0 0 0 5.2-6.2c-.4-.1-.8-.4-.5-.9a1.55 1.55 0 0 1 .8.2 20.86 20.86 0 0 0 1.4-3h-1.1v-.8c.7-.1 1.1.1 1.1.7a24.43 24.43 0 0 0 1-2.4c-.9.2-1.8-.1-2.2 1.7-.2 0-.3-.1-.5-.2-.3.2-.9.1-1.4.2a.67.67 0 0 1 .5-.7c-1.4-1.4 2.4-4.2 4.2-2.7a33.82 33.82 0 0 0 1.1-3.4 1.44 1.44 0 0 1-.2-.3c-1-.6-.2-.3.4 0a20.15 20.15 0 0 1 .7-2.3c-.1 0-.1 0-.2-.1s.1-.3.4-.4c.4-1.6.9-3.3 1.3-5.1h-.1c0-.4.1-.8.3-.9 1.7-7.4 3-15.9 4.3-24.9.1 2.8.2 5.7.4 8.5.3.2.6.4.6.5a.33.33 0 0 1-.5 0c1 15.2 3.1 29.7 7.3 33a4.38 4.38 0 0 0 2.8 1 4.87 4.87 0 0 0 1.2-.1c2.9-.8 5.3-3.8 7-7.6a.76.76 0 0 1-.5.2 2.14 2.14 0 0 1 .4-1.2v-.1a.35.35 0 0 1 .2-.1 1.79 1.79 0 0 1 .7-.5 35.44 35.44 0 0 0 1.7-5.8c-.4.5-1.3-.6-1.8-.6.6-1.2.9.6 1.9.4.3-1.5.6-3 .8-4.5l.2-1.3a2 2 0 0 1-.8-1.2c.4.2.7 0 1-.1l1-7.2c-.4 0-.8-.1-.9-.3 0 0 1.1-.7.8-1.6-.2-.6-.5.1-1.2 0-.1-1.4.9-.7 1.6-.5l4.8-34.1q.3-1.65.6-3c-.4 0-.7.1-1.1.1a4.73 4.73 0 0 1 1.2-.7c1.7-7.8 4.2-12 7.4-12.3a3.65 3.65 0 0 1 3.1 1.1c3.1 2.9 4.9 10.9 4.7 20v9.6h.1v-.4c1 .1.3.7-.1 1v3.1a1.08 1.08 0 0 1 1.7-.1c.1.8-1.1.3-1.7.4v11.1c.1.1.3.2.5.4.1.5-.2.6-.5.7v22.3c0 .2.1.5.1.7h.4c0 .1-.2.2-.3.2a2.16 2.16 0 0 0 4.1-1v-6.6a.4.4 0 0 1-.7-.2c.2-.5.3-.1.7 0V115c-.4-.1-.8-.4-1.1 0a1.62 1.62 0 0 1 1.1-.9v-3.3a.19.19 0 0 1 0-.3V97.8c.2-6.2.4-11.9.9-16.9h-1.1v-.8c.7-.1 1 .1 1.1.6.1-.7.1-1.3.2-1.9a.82.82 0 0 0-.5.5c-.8-.4-.1-1 .6-1.1 1.2-11 3.3-18.8 7.3-22.6v-.7h.8a8.91 8.91 0 0 1 3.8-1.8 4.44 4.44 0 0 1 3.7.6c1.8 1.5 3.1 5.1 3.8 10a2.37 2.37 0 0 1 1 .3c0 .4-1.5.6-.6.9-.1.2-.2.3-.3.2a194.8 194.8 0 0 1 1.2 21.9c0 .6-.1 1.3-.1 1.9V90a2 2 0 0 0 .1.8v3.7c.5-.1 1.1-.1 1-.8.9.5-.5 1.1-1 1.6v9q.3 0 0 .3v14.3a.76.76 0 0 1 .2.4h-.2v2.1a2.22 2.22 0 0 0 2.2 2.2 2.14 2.14 0 0 0 2.1-2.2v-4.3a.84.84 0 0 1-.2-.9c.1.1.1.1.2.1l-.1-19.8v-9.6c.7-16.5 3-28.5 6.9-35.7a3.56 3.56 0 0 1-1.5 0c-.8-.1-1.8-.7-.4-.4.1 0 .5.4.4.4a10 10 0 0 0 1.6-.2c2.3-4.1 5-6.6 8.3-7.4.2-.3.7-.3 1.1-.3 0 .1-.1.1-.2.2a3.09 3.09 0 0 1 2.5.5c2.1 1.7 2.8 7.3 3 15.6.3-.3 1.4.1 1.8-.1 0 .8-1.2.3-1.8.4v2.2a1.5 1.5 0 0 1 1-.2c-.1.4-.6.3-1 .4.1 4.4 0 9.2 0 14.7 0 3.2-.1 6.6-.1 10.2v5.2c.1 0 .2-.1.4 0a.69.69 0 0 1-.3.8V96c.2-.4 1.6-.3 1.2.3a2.13 2.13 0 0 1 2.5 1.4c-2.6-.1-2.6 2-2.9 3.7h-.6a20.44 20.44 0 0 0 1.1 4.6.45.45 0 0 1 .6.3.76.76 0 0 1-.4.2 17.6 17.6 0 0 0 .9 2l-.1-.2h.9v.9c-.2 0-.3-.1-.5-.1a8.72 8.72 0 0 0 2.6 2.8 7.67 7.67 0 0 0 4.1 1.2 11 11 0 0 0 4.3-1c5.7-2.4 9.6-9.1 11.3-19.4l.3-2.4a7.84 7.84 0 0 1 .5 1.4c.1-.3.7-.3 1.1-.3 0 .4-.6.3-1.1.4a20.64 20.64 0 0 0 3.4 6.6 13.08 13.08 0 0 0 2.4 2.3 1.55 1.55 0 0 1 .8-.2c-.1.2-.2.3-.3.5a14.85 14.85 0 0 0 8.4 2.5c8.8 0 14.1-8.3 17.4-18.7-.2 0-.3-.1-.5-.2a1.59 1.59 0 0 1 1.2-2.2 2.54 2.54 0 0 1 .2-.7c0 .2.1.4.1.6a1.32 1.32 0 0 1 1.6 1.1 1.52 1.52 0 0 0-1.1.6c1.3 4.4 4 8.9 9.3 10.9.3.1 6 2.6 14.6-3.5h-2.5c.6-.9 2.6-.3 3.2-1.2.4.1.2.4 0 .7l1.5-1.2c0-.6.2-.6.4-.3a49.66 49.66 0 0 0 5.9-6.1.76.76 0 0 1-.4-.2c0-.5.6-.6 1-.5.1-.1.1-.2.2-.3a9 9 0 0 1 3.2-2.5 3.54 3.54 0 0 1-.1-.6c.3 1.1 1.3-.8 1.2 0a1.24 1.24 0 0 0-.2.3 5.55 5.55 0 0 1 3.6 0c4 1.3 6.9 5.9 7.1 11.3.2 4.5-1.4 15.5-19.4 24.6a1.38 1.38 0 0 0-.2.7c-.3.4-1.2.3-1.9.3a9.82 9.82 0 0 1-1.8.8c-.9.3-8.6 2.7-21.1 6.5a5.74 5.74 0 0 1 .7.4c-.5 0-.7 1.1-.4.8-.7.6-.7-.1-1.6.4 0 .4.5.3.8.4-.5 1.6-.8-.1-2 0 .5-.6 1.5-.6 2-1.2.2-.8-1.2-.2-1.8 0v-.1c-2.8.9-5.9 1.8-9.1 2.8.2.2.3.4.6.4.2.3-1.1.3-1.7-.1-7.5 2.3-16.1 4.9-25.3 7.8.1.3-.2.8-.8.2-.5.2-1 .3-1.6.5l-.3.3c-.1 0-.2-.1-.3-.1-2.5.8-5 1.5-7.5 2.3-1 .6-2 2.5-.5 3.8-1.8-.1-2.3-1.7-2-3-2.7.8-5.3 1.6-8.1 2.5h.1c-.1.4-.7.3-1.2.4a.1.1 0 0 1 .1-.1c-.5.1-1 .3-1.4.4h.5a.81.81 0 0 1-1.3.2c-.8.2-1.6.5-2.5.8 0 .1-.1.1-.2.2a.1.1 0 0 0-.1-.1c-11.6 3.6-23.7 7.3-36 11.1-.1 0-.2.1-.3.1l-8.7 2.7c.4.2 1.1.6 1.1.5.5 1.2-1.1-.3-1.2-.4a.1.1 0 0 1-.1-.1c-7.4 2.3-14.8 4.5-22.1 6.8.1.1.1.2.1.5-.4 0-.6-.1-.7-.3-1.1.3-2.3.7-3.4 1 0 .4-.3.5-.2 1a1.78 1.78 0 0 1-.8-.7c-11.6 3.5-23.1 7-34.1 10.4a.37.37 0 0 1 .3.1 5.05 5.05 0 0 0-1 4.6c7.9-2.4 16-4.8 24.3-7.3a7.69 7.69 0 0 1 1.6-2.5 8.51 8.51 0 0 0 1.7.6c-.3.9-1.8.5-2.3 1.1 0 .2.1.2.1.4 21.5-6.5 43.8-13.3 64.9-19.8 0-.1.1-.3 0-.5a1 1 0 0 1 .8.2c21.4-6.6 41.6-12.8 58.3-17.9-.1-.2-.1-.5-.2-.8a3.7 3.7 0 0 1 1.1.5c23.4-7.2 39.9-12.3 43.4-13.4-.1 0-.1-.1-.2-.1.6-.7.9-.4.9-.1a.1.1 0 0 0 .1-.1h.1c17.4-7.5 23.3-17 25.2-23.9a1.53 1.53 0 0 1-1.6-.1V96a1.67 1.67 0 0 1 1.8.3 14.71 14.71 0 0 0 .9-5.7c-.3-7.1-4.5-13.4-10.1-15.2-4.5-1.5-9.1.1-12.5 4.3-11.4 14.1-18.7 11.3-19 11.2-8.5-3.1-7.9-16.5-7.9-17l-.8-52.8a2.13 2.13 0 0 0-2.2-2.1 2.07 2.07 0 0 0-2.1 2.2l.1 7.1c0 .1.1.1.2.1 0 .2-.1.3-.2.3v.7c-.2-.4-.5-.8-.7-1.2-.1.5-.2 1.5-1.8.9.4-.5 2.1-1.3 0-1.2.2-1 .7-.7 1.4-.5-.2-.3-.3-.6-.5-.9a8.52 8.52 0 0 0-6.3-3.5c-17.2-1.4-22.5 27.8-24.2 37.2l-.2 1c-.2 1-.5 2.8-.8 5.2l-.3 2.1h.1a.52.52 0 0 1-.2.4l-2.3 16.3a4.65 4.65 0 0 0 .9.3c-.2.3-.6.3-1 .2l-.9 6.4c-1 6-3.3 13.7-8.8 16-2.8 1.2-4 .4-4.4.1-2-1.3-3.4-5.6-3.4-10.8V86.1c-.2-.2-.5-.5-.5-.6.1-.3.3-.5.5-.5v-3.5a4.33 4.33 0 0 1-.5.1c-.1-.5.1-.7.5-.7v-8.2h-.1v-.6h.1c.1-9.9 0-17.3-.8-22.4a5.72 5.72 0 0 1-1.4.1c.1-.5.8-.4 1.3-.4-.7-4.2-1.8-7-3.8-8.6-1.5-1.6-3.7-2-6.4-1.4zm43.6 215.1c-2.1-2.1-5.2-.3-6.9 1.4a10.89 10.89 0 0 0-2.3 3.3l-2.2-2.1 6.3-6.3-1.3-1.3-7.6 7.7 4.4 4.3 1.7-.1a11.15 11.15 0 0 1 2.4-4.1c1.1-1.1 3.1-2.5 4.2-1.4.8.8.1 2.2-.3 3a7.55 7.55 0 0 1-1.1 1.4 12.3 12.3 0 0 1-4.5 2.7l.5 1.8a10.47 10.47 0 0 0 5.3-3.1 11.6 11.6 0 0 0 1.6-2.1c.7-1.5 1.2-3.8-.2-5.1zM312 270.4a1.24 1.24 0 1 0-1.9 1.6 1.24 1.24 0 1 0 1.9-1.6zm-8.1 7.9l-7.7-11.1-1.6 1.1.9 9.7-8.6-4.2-1.6 1.1 7.7 11 1.6-1.1-5.4-7.7 8.6 4.2-.9-9.6 5.4 7.7zm-17.2 11.5l-8.6-5.4 1.7-6.2-2.4 1.3-2.5 9.4-3.3-6.2-1.7.9 6.4 11.9 1.7-.9-1.7-3.2 1.4-5 7.1 4.5zm-27.7 13a1.89 1.89 0 0 0-2.2-1.4 1.35 1.35 0 0 0-.8 1.5 1.13 1.13 0 0 0 1.5.8c.2-.1.4 0 .5.3a2.23 2.23 0 0 1-.4 1.8.56.56 0 0 0-.1.6.42.42 0 0 0 .6.3c.1 0 .3-.3.4-.4a4 4 0 0 0 .5-3.5zm-10.5 1.2l-1.6-1a6.32 6.32 0 0 1-4.2 3.3c-2.9.8-6.1-.3-6.9-3.4a5 5 0 0 1 3.9-6.3 7.49 7.49 0 0 1 5.3.7l1.1-1.6a9.09 9.09 0 0 0-7-1 7 7 0 0 0-5.2 8.6c1.1 4.2 5.1 6 9.2 5a8 8 0 0 0 5.4-4.3zm-23.3.9a5.14 5.14 0 0 1-4.6 5.8 5.22 5.22 0 0 1-6-4.3 5.16 5.16 0 0 1 4.6-5.9 5.23 5.23 0 0 1 6 4.4zm2-.2a7.06 7.06 0 0 0-8.1-6.1 7.11 7.11 0 1 0 8.1 6.1zm-22.2 9.1l-.2-13.5h-2l-4.7 8.5-4.8-8.3h-2l.2 13.5h1.9l-.2-9.5 4.8 8.3 4.7-8.4.1 9.4zm-21.6-.3l.2-2-9.4-1.1.5-4 4.6.5.2-1.9-4.6-.5.4-3.5 9.1 1 .2-2-11-1.3-1.5 13.4zm-16.7-13.8l.4-1.9-11.2-2.5-.4 1.9 4.7 1.1-2.5 11.2 1.9.4 2.5-11.3zm-21.4 6.6l4.4-12.8-1.9-.7-1.8 5.2-7.5-2.6 1.8-5.2-1.8-.6-4.4 12.7 1.8.6 2-5.7 7.5 2.6-2 5.7zm-18.1-12.2l3.7-7.5-1.8-.9-3.7 7.5c-1.2 2.4-2.7 2.5-4.9 1.4a5.29 5.29 0 0 1-2.7-2.4 3.15 3.15 0 0 1 .4-2.5l3.7-7.5-1.8-.9-3.7 7.5a5.2 5.2 0 0 0-.7 3.2 5.88 5.88 0 0 0 3.6 4.2 6.61 6.61 0 0 0 5.5.5 4.7 4.7 0 0 0 2.4-2.6zm-20.1-12.3l-3.6-2.3 4.3-2.8zm.8 8.1l2.2-14.6-1.8-1.2-12.4 8 1.8 1.2 4.1-2.6 5.1 3.3-.8 4.7zm-14.7-16.1l5.3-6.5-1.5-1.2-5.3 6.5c-1.7 2-3.2 1.8-5.1.2a4.77 4.77 0 0 1-2-3 3.15 3.15 0 0 1 .9-2.4l5.3-6.5-1.5-1.2-5.3 6.5a4.69 4.69 0 0 0-1.4 2.9c-.2 1.9 1.1 3.7 2.5 4.9s3.3 2.2 5.2 1.7a4.09 4.09 0 0 0 2.9-1.9zm-16.7-10.7l.1-1.9a6.29 6.29 0 0 1-5-2c-2.1-2.2-2.7-5.4-.3-7.7a5.14 5.14 0 0 1 7.4.3 7.68 7.68 0 0 1 2 5l1.9.2a9.38 9.38 0 0 0-2.5-6.6 7 7 0 0 0-10.1-.3c-3.1 3-2.7 7.4.1 10.4a8.1 8.1 0 0 0 6.4 2.6zm195.3 10.2l-.8-1.6-7.6 3.8-1.6-3.2 3.7-1.9-.8-1.6-3.7 1.9-1.4-2.8 7.3-3.7-.8-1.6-8.9 4.5 5.5 10.8zm-15.9 7.7l-4.2-11.4-1.7.6 1.7 4.6-6.7 2.5-1.7-4.6-1.6.6 4.3 11.4 1.6-.6-1.9-5.1 6.7-2.5 1.9 5.1zm-16.2 3.5l-1.4-.9a5.56 5.56 0 0 1-3.8 2.9c-2.7.6-5.4-.3-6.1-3.2a4.51 4.51 0 0 1 3.6-5.6 7.32 7.32 0 0 1 4.8.7l1-1.4a8.18 8.18 0 0 0-6.3-1 6.28 6.28 0 0 0-4.8 7.7c.9 3.8 4.5 5.5 8.2 4.6a7.59 7.59 0 0 0 4.8-3.8zm-17.6 6l-1.9-12-1.7.3 1.9 12zm-9.7-7.4c.1 1.2-.5 1.8-1.7 1.9l-5.3.4-.2-3.4 5.3-.4c1.2-.1 1.8.3 1.9 1.5zm1.8-.1a3.26 3.26 0 0 0-3.8-3.2l-7 .5.9 12.1 1.8-.1-.4-5.2 5.3-.4a3.3 3.3 0 0 0 3.2-3.7zm-19.5 3.8l-3.8-.1 2-4.2zm4.3 5.9l-5.1-12.3-2-.1-5.9 12 1.9.1 1.9-3.9 5.4.2 1.6 4zm-17.2-9.6c-.2 1.3-1.1 1.7-2.3 1.5l-5.4-.7.5-3.5 5.4.7c1.2.2 2 .8 1.8 2zm1.8.4a3.48 3.48 0 0 0-3.3-4.1l-7.1-1-1.7 12 1.8.2.7-5 4.5.6 1.7 5.3 2 .3-1.8-5.4a3.24 3.24 0 0 0 3.2-2.9zm-15.3-4.2l.4-1.7-10-2.4-.4 1.7 4.2 1.1-2.5 10 1.7.4 2.5-10.1zm-23.7 4.1l.7-1.6-6.8-2.8 3.9-9.6-1.6-.7-4.6 11.2zm-13.9-5.9l.8-1.6-7.5-4 1.7-3.2 3.7 1.9.8-1.6-3.6-1.9 1.5-2.8 7.2 3.9.8-1.6-8.8-4.7-5.7 10.7zM278.4 13.6V12h-7.6V8.7h3.7V7.1h-3.7V4.3h7.3V2.7h-8.9v10.8h9.2zm-15.5-5.4a3.51 3.51 0 0 1-3.4 3.7h-3.7V4.3h3.7c2.1 0 3.4 1.8 3.4 3.9zm1.6-.1a5.25 5.25 0 0 0-5.1-5.4h-5.2v10.8h5.3a4.16 4.16 0 0 0 3.4-1.5 5.35 5.35 0 0 0 1.6-3.9zm-24.2.3h-3.4l1.7-3.7zm4 5.2l-4.8-10.8h-1.7l-4.9 10.8h1.7l1.6-3.5h4.9l1.5 3.5zm-15.4 0V2.7h-1.6v10.8h1.6zm.7-13.6H228l-1.2 1.8h1.3zm-8.5 5.8c0 1.1-.8 1.6-1.8 1.6h-4.8V4.3h4.8c1 0 1.8.4 1.8 1.5zm1.6.1c0-2.1-1.4-3.2-3.4-3.2h-6.4v10.8h1.6V9.1h4l2.2 4.5h1.8L220.2 9a3 3 0 0 0 2.5-3.1zm-14.2 7.7V12H201V8.7h3.7V7.1H201V4.3h7.3V2.7h-8.9v10.8h9.1zm-13.6-2l-1-1.1a5.22 5.22 0 0 1-3.9 1.7c-2.4 0-4.7-1.4-4.7-4.1a4.1 4.1 0 0 1 4.3-4.1 6.2 6.2 0 0 1 3.9 1.6l1.2-1a7.26 7.26 0 0 0-5.2-2.2 5.64 5.64 0 0 0-5.8 5.6c0 3.5 2.8 5.7 6.1 5.7a6 6 0 0 0 5.1-2.1zm-14.4 2V12h-7.6V8.7h3.7V7.1h-3.7V4.3h7.3V2.7h-8.9v10.8h9.2zM167.2 2.7h-1.7l-4 9-4-9h-1.7l4.8 10.8h1.9zm-16 3.1c0 1.1-.8 1.6-1.9 1.6h-4.8V4.3h4.8c1.1 0 1.9.4 1.9 1.5zm1.6.1c0-2.1-1.4-3.2-3.4-3.2H143v10.8h1.6V9.1h4l2.2 4.5h1.8L150.3 9a3 3 0 0 0 2.5-3.1zm-14.2 7.7V12H131V8.7h3.7V7.1H131V4.3h7.3V2.7h-8.9v10.8h9.2zm-13.6-2l-1-1.1a5.22 5.22 0 0 1-3.9 1.7c-2.4 0-4.6-1.4-4.6-4.1a4.1 4.1 0 0 1 4.3-4.1 6.47 6.47 0 0 1 4 1.6l1.2-1a7.26 7.26 0 0 0-5.2-2.2A5.64 5.64 0 0 0 114 8c0 3.5 2.7 5.7 6.1 5.7a6 6 0 0 0 4.9-2.1z"/></svg>